<svg fill="#b6b19d" id="Capa_1" enable-background="new 0 0 512 512" height="512" viewBox="0 0 512 512" width="512" xmlns="http://www.w3.org/2000/svg"><g><path d="m297.113 184.826h-30.286v-46.709c0-8.284-6.716-15-15-15h-39.011v-33.108h15.157c8.284 0 15-6.716 15-15v-14.394h127.612v22.498c0 8.284 6.716 15 15 15s15-6.716 15-15v-37.498c0-8.284-6.716-15-15-15h-142.611v-15.615c0-8.284-6.716-15-15-15h-60c-8.284 0-15 6.716-15 15v60.009c0 8.284 6.716 15 15 15h14.843v33.108h-39.011c-8.284 0-15 6.716-15 15v46.709h-30.286c-8.284 0-15 6.716-15 15v297.174c0 8.284 6.716 15 15 15h198.593c8.284 0 15-6.716 15-15v-297.174c0-8.284-6.716-15-15-15zm-114.139-154.826h30v30.009h-30zm-69.454 256.944h168.593v122.938h-168.593zm45.285-133.827h78.022v31.709h-78.022zm123.308 61.709v42.118h-168.593v-42.118zm-168.593 267.174v-42.118h168.593v42.118z"/><path d="m422.454 177.678-23.934-40.752c-2.693-4.587-7.615-7.404-12.934-7.404s-10.241 2.817-12.935 7.404l-23.933 40.752c-7.805 13.289-8.042 29.324-.636 42.895 7.267 13.314 20.585 21.628 35.625 22.238.623.025 1.249.038 1.878.038s1.255-.013 1.879-.038c15.04-.61 28.357-8.923 35.625-22.238 7.407-13.571 7.169-29.607-.635-42.895zm-25.698 28.521c-1.042 1.909-4.152 6.377-10.506 6.635-.441.019-.888.019-1.327 0-6.355-.258-9.465-4.726-10.507-6.635-2.31-4.231-2.246-9.214.171-13.329l10.999-18.729 11 18.729c2.416 4.115 2.48 9.098.17 13.329z"/></g></svg>