<?xml version="1.0" encoding="iso-8859-1"?>
<!-- Generator: Adobe Illustrator 19.0.0, SVG Export Plug-In . SVG Version: 6.00 Build 0)  -->
<svg version="1.1" id="Layer_1" xmlns="http://www.w3.org/2000/svg" xmlns:xlink="http://www.w3.org/1999/xlink" x="0px" y="0px"
	 viewBox="0 0 299.2 299.2" style="enable-background:new 0 0 299.2 299.2;" fill="#8aa1a1" xml:space="preserve">
<g>
	<g>
		<path d="M297.456,143.042c-24.098-42.093-68.951-68.241-117.055-68.241c-42.436,0-82.33,20.356-107.688,54.046l-50.178-50.18
			c-3.774-3.776-9.453-4.904-14.385-2.862C3.216,77.848,0,82.662,0,88.001v123.2c0,5.338,3.216,10.153,8.149,12.195
			c1.632,0.677,3.348,1.005,5.049,1.005c3.435,0,6.811-1.34,9.336-3.867l50.178-50.178c25.357,33.69,65.252,54.045,107.688,54.045
			c48.107,0,92.961-26.149,117.057-68.242C299.782,152.095,299.782,147.105,297.456,143.042z"/>
	</g>
</g>
<g>
</g>
<g>
</g>
<g>
</g>
<g>
</g>
<g>
</g>
<g>
</g>
<g>
</g>
<g>
</g>
<g>
</g>
<g>
</g>
<g>
</g>
<g>
</g>
<g>
</g>
<g>
</g>
<g>
</g>
</svg>
