<?xml version="1.0"?>
<svg xmlns="http://www.w3.org/2000/svg" xmlns:xlink="http://www.w3.org/1999/xlink" xmlns:svgjs="http://svgjs.com/svgjs" version="1.1" width="512" height="512" x="0" y="0" viewBox="0 0 64 64" style="enable-background:new 0 0 512 512" xml:space="preserve" class=""><g transform="matrix(-1,0,0,1,63.999999999999986,0)"><g xmlns="http://www.w3.org/2000/svg"><g><g><path d="m59.5 18.5h-55c-1.1 0-2-.9-2-2s.9-2 2-2h55c1.1 0 2 .9 2 2s-.9 2-2 2z" fill="#ffffff" data-original="#000000" style="" class=""/></g></g></g><g xmlns="http://www.w3.org/2000/svg"><g><g><path d="m32.5 34.5h-28c-1.1 0-2-.9-2-2s.9-2 2-2h28c1.1 0 2 .9 2 2s-.9 2-2 2z" fill="#ffffff" data-original="#000000" style="" class=""/></g></g></g><g xmlns="http://www.w3.org/2000/svg"><g><g><path d="m59.5 50.5h-55c-1.1 0-2-.9-2-2s.9-2 2-2h55c1.1 0 2 .9 2 2s-.9 2-2 2z" fill="#ffffff" data-original="#000000" style="" class=""/></g></g></g></g></svg>
